<?xml version="1.0" encoding="iso-8859-1"?>
<!-- Generator: Adobe Illustrator 15.0.2, SVG Export Plug-In . SVG Version: 6.00 Build 0)  -->
<!DOCTYPE svg PUBLIC "-//W3C//DTD SVG 1.1//EN" "http://www.w3.org/Graphics/SVG/1.1/DTD/svg11.dtd">
<svg version="1.1" xmlns="http://www.w3.org/2000/svg" xmlns:xlink="http://www.w3.org/1999/xlink" x="0px" y="0px" width="60px"
	 height="60px" viewBox="0 0 60 60" style="enable-background:new 0 0 60 60;" xml:space="preserve">
<g id="Layer_21">
	<path style="fill:#FFFFFF;" d="M30,0C13.457,0,0,13.458,0,30s13.457,30,30,30s30-13.458,30-30S46.543,0,30,0z"/>
	<g>
		<path style="fill:none;stroke:#0A0A0A;stroke-width:2.85;stroke-linecap:round;stroke-linejoin:round;stroke-miterlimit:10;" d="
			M38.646,23.337c-1.381,0-2.5,1.12-2.5,2.5s1.119,2.5,2.5,2.5h-15c-1.381,0-2.5-1.12-2.5-2.5s1.119-2.5,2.5-2.5H38.646z"/>
		
			<polyline style="fill:none;stroke:#0A0A0A;stroke-width:2.85;stroke-linecap:round;stroke-linejoin:round;stroke-miterlimit:10;" points="
			47.032,23.312 29.988,11.95 12.946,23.312 		"/>
		<path style="fill:#FFF79D;stroke:#0A0A0A;stroke-miterlimit:10;" d="M28.258,43.338"/>
		<path style="fill:none;stroke:#0A0A0A;stroke-width:2.85;stroke-linecap:round;stroke-linejoin:round;stroke-miterlimit:10;" d="
			M21.147,26.035"/>
		<path style="fill:none;stroke:#0A0A0A;stroke-width:2.85;stroke-linecap:round;stroke-linejoin:round;stroke-miterlimit:10;" d="
			M38.646,28.503v16.082h-15c-1.381,0-2.5-1.122-2.5-2.502V26.165"/>
	</g>
</g>
<g id="Layer_1">
</g>
</svg>
