<?xml version="1.0" encoding="iso-8859-1"?>
<!-- Generator: Adobe Illustrator 15.0.2, SVG Export Plug-In . SVG Version: 6.00 Build 0)  -->
<!DOCTYPE svg PUBLIC "-//W3C//DTD SVG 1.1//EN" "http://www.w3.org/Graphics/SVG/1.1/DTD/svg11.dtd">
<svg version="1.1" xmlns="http://www.w3.org/2000/svg" xmlns:xlink="http://www.w3.org/1999/xlink" x="0px" y="0px"
	 width="60.001px" height="60px" viewBox="0 0 60.001 60" style="enable-background:new 0 0 60.001 60;" xml:space="preserve">
<g id="Layer_16">
	<path style="fill:#FFFFFF;" d="M30.001,0C13.458,0,0,13.458,0,30s13.458,30,30.001,30c16.541,0,30-13.458,30-30S46.542,0,30.001,0z
		"/>
	<g>
		
			<rect x="16.438" y="11.437" style="fill:none;stroke:#0A0A0A;stroke-width:2.85;stroke-linejoin:round;stroke-miterlimit:10;" width="27.127" height="37.127"/>
		
			<line style="fill:none;stroke:#0A0A0A;stroke-width:2.85;stroke-linecap:round;stroke-linejoin:round;stroke-miterlimit:10;" x1="13.344" y1="40" x2="19.588" y2="40"/>
		
			<line style="fill:none;stroke:#0A0A0A;stroke-width:2.85;stroke-linecap:round;stroke-linejoin:round;stroke-miterlimit:10;" x1="13.344" y1="20" x2="19.588" y2="20"/>
	</g>
	<g>
		<path style="fill:#0A0A0A;" d="M32.141,21.962c0,0.611-0.213,1.128-0.637,1.552c-0.424,0.424-0.937,0.636-1.539,0.636
			c-0.603,0-1.116-0.212-1.539-0.636c-0.424-0.423-0.636-0.941-0.636-1.552c0-0.61,0.212-1.127,0.636-1.552
			c0.423-0.424,0.937-0.636,1.539-0.636c0.602,0,1.115,0.212,1.539,0.636C31.928,20.834,32.141,21.352,32.141,21.962z
			 M28.172,39.643V25.549h3.587v14.093H28.172z"/>
	</g>
</g>
<g id="Layer_1">
</g>
</svg>
