<?xml version="1.0" encoding="utf-8"?>
<!-- Generator: Adobe Illustrator 15.0.2, SVG Export Plug-In  -->
<!DOCTYPE svg PUBLIC "-//W3C//DTD SVG 1.0//EN" "http://www.w3.org/TR/2001/REC-SVG-20010904/DTD/svg10.dtd" [
	<!ENTITY ns_flows "http://ns.adobe.com/Flows/1.0/">
]>
<svg version="1.0"
	 xmlns="http://www.w3.org/2000/svg" xmlns:xlink="http://www.w3.org/1999/xlink" xmlns:a="http://ns.adobe.com/AdobeSVGViewerExtensions/3.0/"
	 x="0px" y="0px" width="60px" height="60px" viewBox="0 0 60 60" overflow="visible" enable-background="new 0 0 60 60"
	 xml:space="preserve">
<defs>
</defs>
<path fill="#FFFFFF" d="M30,0C13.458,0,0,13.458,0,30s13.458,30,30,30s30-13.458,30-30S46.542,0,30,0z"/>
<path fill="#0A0A0A" d="M14.201,43.603c-0.221,0-0.443-0.051-0.649-0.156c-0.576-0.296-0.881-0.942-0.742-1.575
	c3.564-16.183,14.956-21.154,18.599-22.349v-5.097c0-0.566,0.335-1.078,0.854-1.305c0.519-0.227,1.122-0.125,1.538,0.258
	l13.309,12.28c0.291,0.269,0.457,0.647,0.458,1.044c0.001,0.397-0.163,0.776-0.454,1.046L33.804,40.139
	c-0.414,0.386-1.021,0.491-1.539,0.264c-0.521-0.227-0.856-0.739-0.856-1.307v-4.665c-2.984,0.311-9.955,1.785-16.146,8.697
	C14.985,43.438,14.596,43.603,14.201,43.603z M34.258,17.679v2.914c0,0.666-0.461,1.243-1.11,1.39
	c-0.499,0.115-11.135,2.728-16.072,15.534c7.37-5.821,14.701-6.018,15.643-6.018l0.159,0.002c0.767,0.027,1.38,0.656,1.38,1.424
	v2.897l9.787-9.113L34.258,17.679z"/>
</svg>
