<?xml version="1.0" encoding="iso-8859-1"?>
<!-- Generator: Adobe Illustrator 15.0.2, SVG Export Plug-In . SVG Version: 6.00 Build 0)  -->
<!DOCTYPE svg PUBLIC "-//W3C//DTD SVG 1.1//EN" "http://www.w3.org/Graphics/SVG/1.1/DTD/svg11.dtd">
<svg version="1.1" xmlns="http://www.w3.org/2000/svg" xmlns:xlink="http://www.w3.org/1999/xlink" x="0px" y="0px"
	 width="59.999px" height="60px" viewBox="0 0 59.999 60" style="enable-background:new 0 0 59.999 60;" xml:space="preserve">
<g id="Layer_19">
	<path style="fill:#FFFFFF;" d="M29.999,0C13.457,0,0,13.458,0,30s13.457,30,29.999,30c16.543,0,30-13.458,30-30S46.542,0,29.999,0z
		"/>
	<g>
		<path style="fill:none;stroke:#0A0A0A;stroke-width:2.85;stroke-linejoin:round;stroke-miterlimit:10;" d="M46.606,19.973
			l-6.528,4.508l-4.355-4.355l4.507-6.529c-3.009-0.801-6.348-0.03-8.707,2.329c-3.521,3.521-3.521,9.229-0.002,12.752l-2.171-2.171
			L13.922,41.934l-0.019-0.002c0.432,0.93,1.032,1.801,1.799,2.568c0.768,0.766,1.638,1.365,2.566,1.799l0.008-0.01l15.428-15.427
			l-2.18-2.18c3.523,3.519,9.231,3.519,12.753-0.002C46.636,26.321,47.407,22.981,46.606,19.973z"/>
	</g>
</g>
<g id="Layer_1">
</g>
</svg>
