<?xml version="1.0" encoding="iso-8859-1"?>
<!-- Generator: Adobe Illustrator 15.0.2, SVG Export Plug-In . SVG Version: 6.00 Build 0)  -->
<!DOCTYPE svg PUBLIC "-//W3C//DTD SVG 1.1//EN" "http://www.w3.org/Graphics/SVG/1.1/DTD/svg11.dtd">
<svg version="1.1" xmlns="http://www.w3.org/2000/svg" xmlns:xlink="http://www.w3.org/1999/xlink" x="0px" y="0px"
	 width="59.999px" height="60px" viewBox="0 0 59.999 60" style="enable-background:new 0 0 59.999 60;" xml:space="preserve">
<g id="Layer_23">
	<path style="fill:#FFFFFF;" d="M29.999,0C13.457,0,0,13.458,0,30s13.457,30,29.999,30c16.543,0,30-13.458,30-30S46.542,0,29.999,0z
		"/>
	
		<polyline style="fill:none;stroke:#0A0A0A;stroke-width:2.85;stroke-linecap:round;stroke-linejoin:round;stroke-miterlimit:10;" points="
		47.042,23.434 29.999,12.071 12.957,23.434 	"/>
	<g>
		<path style="fill:#0A0A0A;stroke:#0A0A0A;stroke-width:0.05;stroke-miterlimit:10;" d="M14.481,27.708h2.16l3.394,9.454h0.044
			v-9.454h2.248v15.69h-2.116l-3.438-9.432h-0.044v9.432h-2.248V27.708z"/>
		<path style="fill:#0A0A0A;stroke:#0A0A0A;stroke-width:0.05;stroke-miterlimit:10;" d="M26.426,31.41
			c0-0.632,0.11-1.19,0.33-1.675c0.221-0.485,0.511-0.885,0.871-1.201c0.359-0.316,0.764-0.555,1.212-0.717
			c0.448-0.161,0.899-0.242,1.355-0.242c0.455,0,0.906,0.081,1.355,0.242c0.447,0.162,0.852,0.4,1.212,0.717
			c0.359,0.316,0.649,0.716,0.87,1.201c0.221,0.484,0.331,1.043,0.331,1.675v0.793h-2.248V31.41c0-0.544-0.151-0.944-0.452-1.201
			c-0.302-0.257-0.657-0.386-1.068-0.386c-0.412,0-0.769,0.129-1.069,0.386c-0.302,0.257-0.452,0.657-0.452,1.201v8.286
			c0,0.543,0.15,0.943,0.452,1.2c0.301,0.258,0.657,0.387,1.069,0.387c0.411,0,0.767-0.129,1.068-0.387
			c0.301-0.257,0.452-0.657,0.452-1.2v-2.953H29.93V34.76h4.033v4.937c0,0.646-0.11,1.208-0.331,1.686s-0.511,0.874-0.87,1.189
			c-0.36,0.316-0.765,0.556-1.212,0.717c-0.449,0.161-0.9,0.242-1.355,0.242c-0.456,0-0.907-0.081-1.355-0.242
			s-0.853-0.4-1.212-0.717c-0.36-0.315-0.65-0.712-0.871-1.189c-0.22-0.478-0.33-1.039-0.33-1.686V31.41z"/>
		<path style="fill:#0A0A0A;stroke:#0A0A0A;stroke-width:0.05;stroke-miterlimit:10;" d="M38.018,31.41
			c0-0.632,0.11-1.19,0.33-1.675c0.221-0.485,0.511-0.885,0.871-1.201c0.359-0.316,0.764-0.555,1.212-0.717
			c0.448-0.161,0.899-0.242,1.355-0.242c0.455,0,0.906,0.081,1.355,0.242c0.447,0.162,0.851,0.401,1.212,0.717
			c0.359,0.316,0.649,0.716,0.87,1.201c0.221,0.484,0.331,1.043,0.331,1.675v8.286c0,0.646-0.11,1.208-0.331,1.686
			s-0.511,0.874-0.87,1.189c-0.361,0.316-0.765,0.556-1.212,0.717c-0.449,0.161-0.9,0.242-1.355,0.242
			c-0.456,0-0.907-0.081-1.355-0.242s-0.853-0.4-1.212-0.717c-0.36-0.315-0.65-0.712-0.871-1.189c-0.22-0.478-0.33-1.039-0.33-1.686
			V31.41z M40.265,39.696c0,0.543,0.15,0.943,0.452,1.2c0.301,0.258,0.657,0.387,1.069,0.387c0.411,0,0.767-0.129,1.068-0.387
			c0.301-0.256,0.452-0.657,0.452-1.2V31.41c0-0.544-0.151-0.944-0.452-1.201c-0.302-0.257-0.657-0.386-1.068-0.386
			c-0.412,0-0.769,0.129-1.069,0.386c-0.302,0.257-0.452,0.657-0.452,1.201V39.696z"/>
	</g>
</g>
<g id="Layer_1">
</g>
</svg>
