<?xml version="1.0" encoding="iso-8859-1"?>
<!-- Generator: Adobe Illustrator 15.0.2, SVG Export Plug-In . SVG Version: 6.00 Build 0)  -->
<!DOCTYPE svg PUBLIC "-//W3C//DTD SVG 1.1//EN" "http://www.w3.org/Graphics/SVG/1.1/DTD/svg11.dtd">
<svg version="1.1" xmlns="http://www.w3.org/2000/svg" xmlns:xlink="http://www.w3.org/1999/xlink" x="0px" y="0px"
	 width="60.001px" height="60px" viewBox="0 0 60.001 60" style="enable-background:new 0 0 60.001 60;" xml:space="preserve">
<g id="Layer_17">
	<path style="fill:#FFFFFF;" d="M30.001,0C13.458,0,0,13.458,0,30s13.458,30,30.001,30c16.541,0,30-13.458,30-30S46.542,0,30.001,0z
		"/>
	<g>
		<path style="fill:none;stroke:#0A0A0A;stroke-width:2.85;stroke-linejoin:round;stroke-miterlimit:10;" d="M42.573,17.662
			c-3.591,2.426-7.921,3.843-12.581,3.843c-4.659,0-8.988-1.416-12.578-3.842"/>
		<path style="fill:none;stroke:#0A0A0A;stroke-width:2.85;stroke-linejoin:round;stroke-miterlimit:10;" d="M17.412,42.373
			c3.591-2.426,7.92-3.842,12.58-3.842c4.65,0,8.973,1.411,12.56,3.828"/>
		<g>
			<path style="fill:#0A0A0A;" d="M29.992,12.853c9.456,0,17.15,7.693,17.15,17.15s-7.694,17.15-17.15,17.15
				c-9.457,0-17.15-7.693-17.15-17.15S20.536,12.853,29.992,12.853 M29.992,10.002c-11.046,0-20,8.954-20,20
				c0,11.046,8.954,20,20,20s20-8.953,20-20C49.992,18.957,41.038,10.002,29.992,10.002L29.992,10.002z"/>
		</g>
		
			<line style="fill:none;stroke:#0A0A0A;stroke-width:2.85;stroke-linejoin:round;stroke-miterlimit:10;" x1="29.992" y1="10.837" x2="29.992" y2="49.168"/>
		
			<line style="fill:none;stroke:#0A0A0A;stroke-width:2.85;stroke-linejoin:round;stroke-miterlimit:10;" x1="10.909" y1="30.002" x2="49.075" y2="30.002"/>
		<g>
			<path style="fill:#0A0A0A;" d="M29.992,13.52c3.763,0,7.955,6.769,7.955,16.482s-4.192,16.483-7.955,16.483
				c-3.762,0-7.955-6.77-7.955-16.483S26.23,13.52,29.992,13.52 M29.992,10.67c-5.967,0-10.805,8.655-10.805,19.333
				s4.838,19.333,10.805,19.333s10.805-8.655,10.805-19.333S35.959,10.67,29.992,10.67L29.992,10.67z"/>
		</g>
	</g>
</g>
<g id="Layer_1">
</g>
</svg>
