<?xml version="1.0" encoding="utf-8"?>
<!-- Generator: Adobe Illustrator 15.0.2, SVG Export Plug-In  -->
<!DOCTYPE svg PUBLIC "-//W3C//DTD SVG 1.0//EN" "http://www.w3.org/TR/2001/REC-SVG-20010904/DTD/svg10.dtd" [
	<!ENTITY ns_flows "http://ns.adobe.com/Flows/1.0/">
]>
<svg version="1.0"
	 xmlns="http://www.w3.org/2000/svg" xmlns:xlink="http://www.w3.org/1999/xlink" xmlns:a="http://ns.adobe.com/AdobeSVGViewerExtensions/3.0/"
	 x="0px" y="0px" width="48px" height="56px" viewBox="0 0 48 56" overflow="visible" enable-background="new 0 0 48 56"
	 xml:space="preserve">
<defs>
</defs>
<g>
	<g>
		<g>
			<g>
				<path fill="#CFD0D2" d="M14.77,8.024c0.062-0.046,0.127-0.089,0.186-0.144l0.008,0.01c5.102-4.929,13.231-4.791,18.162,0.307
					c4.93,5.101,4.794,13.23-0.307,18.162c-5.1,4.928-13.23,4.792-18.16-0.307c-0.103-0.106-0.213-0.199-0.332-0.28l-2.97,2.97
					c0.065,0.1,0.138,0.196,0.224,0.286c6.571,6.799,17.413,6.982,24.215,0.408c6.798-6.573,6.98-17.414,0.408-24.213
					C29.691-1.514,18.992-1.757,12.182,4.63c-0.066,0.051-0.131,0.103-0.193,0.165c-0.076,0.076-0.142,0.159-0.205,0.243
					L14.77,8.024z"/>
				<path fill="#CFD0D2" d="M29.78,23.216c3.365-3.254,3.455-8.616,0.202-11.981c-3.251-3.365-8.615-3.456-11.98-0.202
					c-0.039,0.038-0.066,0.082-0.103,0.121l3.073,3.074c0.021-0.02,0.047-0.033,0.066-0.054c1.629-1.575,4.228-1.531,5.803,0.098
					c1.574,1.629,1.529,4.227-0.101,5.802c-1.628,1.575-4.223,1.53-5.799-0.098c-0.14-0.144-0.298-0.257-0.464-0.356l-2.984,2.985
					c0.086,0.144,0.184,0.282,0.305,0.408C21.053,26.378,26.415,26.469,29.78,23.216"/>
				<path fill="#272525" d="M32.988,26.224c-0.063,0.047-0.128,0.09-0.188,0.145l-0.009-0.01c-5.099,4.931-13.229,4.792-18.16-0.307
					c-4.93-5.1-4.792-13.232,0.308-18.161c5.1-4.93,13.23-4.792,18.16,0.307c0.104,0.105,0.212,0.199,0.329,0.279l2.971-2.97
					c-0.066-0.099-0.137-0.195-0.223-0.285c-6.573-6.8-17.413-6.981-24.215-0.409c-6.797,6.573-6.981,17.415-0.409,24.215
					c6.514,6.736,17.212,6.977,24.022,0.592c0.066-0.051,0.132-0.105,0.192-0.164c0.079-0.076,0.142-0.162,0.206-0.244
					L32.988,26.224z"/>
				<path fill="#272525" d="M17.977,11.033c-3.365,3.253-3.454,8.616-0.203,11.98c3.253,3.365,8.617,3.456,11.981,0.203
					c0.039-0.038,0.067-0.082,0.104-0.122l-3.073-3.074c-0.021,0.02-0.046,0.034-0.067,0.054c-1.631,1.575-4.227,1.532-5.802-0.098
					c-1.574-1.628-1.531-4.226,0.098-5.802c1.629-1.575,4.226-1.531,5.802,0.098h0.001c0.139,0.147,0.297,0.257,0.462,0.355
					l2.984-2.983c-0.085-0.144-0.184-0.283-0.306-0.408C26.705,7.87,21.342,7.781,17.977,11.033"/>
				<path fill="#636365" d="M5.079,46.957c-0.666,0.35-1.338,0.523-2.018,0.523c-0.645,0-1.226-0.164-1.739-0.498
					c-0.422-0.27-0.747-0.615-0.977-1.039C0.116,45.52,0,45.059,0,44.561c0-0.793,0.295-1.471,0.882-2.029
					c0.588-0.564,1.334-0.844,2.236-0.844c0.624,0,1.262,0.152,1.913,0.453v0.871c-0.695-0.379-1.333-0.57-1.913-0.57
					c-0.661,0-1.204,0.207-1.627,0.617c-0.426,0.412-0.637,0.92-0.637,1.527c0,0.602,0.21,1.107,0.628,1.52
					c0.418,0.408,0.948,0.613,1.587,0.613c0.651,0,1.323-0.223,2.01-0.664V46.957z"/>
				<polygon fill="#636365" points="11.094,47.385 7.64,47.385 7.64,41.779 11.014,41.779 11.014,42.502 8.435,42.502 8.435,44.191 
					10.938,44.191 10.938,44.912 8.435,44.912 8.435,46.66 11.094,46.66 				"/>
				<polygon fill="#636365" points="18.93,47.385 18.217,47.385 14.54,43.027 14.54,47.385 13.745,47.385 13.745,41.779 
					14.442,41.779 18.135,46.129 18.135,41.779 18.93,41.779 				"/>
				<polygon fill="#636365" points="26.144,42.502 24.085,42.502 24.085,47.385 23.287,47.385 23.287,42.502 21.229,42.502 
					21.229,41.779 26.144,41.779 				"/>
				<path fill="#636365" d="M31.018,43.33c0-0.311-0.092-0.535-0.271-0.67c-0.182-0.133-0.466-0.199-0.849-0.199h-0.669v1.746h0.669
					C30.644,44.207,31.018,43.916,31.018,43.33 M32.741,47.385h-0.969l-0.959-1.471c-0.254-0.383-0.452-0.637-0.596-0.764
					c-0.209-0.178-0.459-0.27-0.75-0.27h-0.239v2.504h-0.795v-5.605h1.64c0.57,0,1.008,0.133,1.312,0.4
					c0.308,0.27,0.459,0.646,0.459,1.133c0,0.711-0.349,1.176-1.05,1.396c0.177,0.092,0.37,0.301,0.584,0.623L32.741,47.385z"/>
				<path fill="#636365" d="M39.51,45.381c0,0.625-0.221,1.131-0.664,1.518c-0.444,0.389-1.025,0.582-1.749,0.582
					c-0.865,0-1.536-0.295-2.018-0.885c-0.17-0.213-0.282-0.455-0.337-0.729c-0.038-0.182-0.058-0.463-0.058-0.838v-3.25h0.796
					v3.217c0,0.299,0.011,0.518,0.032,0.656c0.04,0.197,0.112,0.359,0.222,0.49c0.334,0.391,0.788,0.584,1.362,0.584
					c0.488,0,0.878-0.125,1.174-0.377s0.444-0.584,0.444-0.992v-3.578h0.795V45.381z"/>
				<polygon fill="#636365" points="47.756,47.385 46.978,47.385 46.978,43.012 45.04,45.266 43.104,43.012 43.104,47.385 
					42.324,47.385 42.324,41.779 43.022,41.779 45.04,44.133 47.061,41.779 47.756,41.779 				"/>
				<path fill="#636365" d="M5.079,55.254c-0.666,0.35-1.338,0.523-2.018,0.523c-0.645,0-1.226-0.166-1.739-0.498
					c-0.422-0.27-0.747-0.615-0.977-1.041C0.116,53.814,0,53.355,0,52.857c0-0.793,0.295-1.471,0.882-2.031
					c0.588-0.561,1.334-0.842,2.236-0.842c0.624,0,1.262,0.152,1.913,0.451v0.871C4.336,50.93,3.698,50.74,3.118,50.74
					c-0.661,0-1.204,0.205-1.627,0.615c-0.426,0.412-0.637,0.918-0.637,1.527c0,0.602,0.21,1.105,0.628,1.518
					c0.418,0.408,0.948,0.615,1.587,0.615c0.651,0,1.323-0.223,2.01-0.666V55.254z"/>
				<polygon fill="#636365" points="12.129,50.074 9.879,52.916 9.879,55.68 9.068,55.68 9.068,52.873 6.901,50.074 7.853,50.074 
					9.487,52.201 11.16,50.074 				"/>
				<polygon fill="#636365" points="17.42,50.797 15.025,50.797 15.025,52.447 17.348,52.447 17.348,53.168 15.025,53.168 
					15.025,55.68 14.229,55.68 14.229,50.074 17.42,50.074 				"/>
				<path fill="#636365" d="M22.657,51.627c0-0.312-0.093-0.535-0.273-0.67c-0.181-0.133-0.466-0.199-0.849-0.199h-0.668v1.746
					h0.668C22.283,52.504,22.657,52.213,22.657,51.627 M24.379,55.68h-0.968l-0.961-1.469c-0.251-0.383-0.451-0.637-0.593-0.762
					c-0.211-0.182-0.459-0.271-0.75-0.271h-0.24v2.502H20.07v-5.605h1.642c0.567,0,1.006,0.137,1.313,0.402
					c0.307,0.27,0.459,0.648,0.459,1.135c0,0.709-0.351,1.174-1.049,1.395c0.174,0.092,0.369,0.301,0.582,0.623L24.379,55.68z"/>
				<path fill="#636365" d="M31.264,52.883c0-0.574-0.207-1.076-0.624-1.504c-0.415-0.426-0.922-0.639-1.518-0.639
					c-0.575,0-1.074,0.205-1.497,0.619c-0.426,0.414-0.637,0.92-0.637,1.523c0,0.586,0.205,1.088,0.619,1.506
					c0.413,0.418,0.918,0.627,1.515,0.627c0.596,0,1.103-0.207,1.518-0.623C31.057,53.975,31.264,53.473,31.264,52.883
					 M32.116,52.906c0,0.799-0.293,1.475-0.878,2.035c-0.585,0.557-1.291,0.836-2.116,0.836c-0.826,0-1.531-0.283-2.113-0.848
					c-0.582-0.566-0.873-1.258-0.873-2.072c0-0.787,0.294-1.465,0.878-2.027c0.585-0.562,1.289-0.844,2.108-0.844
					c0.838,0,1.546,0.283,2.126,0.852C31.826,51.408,32.116,52.098,32.116,52.906"/>
				<polygon fill="#636365" points="41.914,50.074 39.807,55.721 39.624,55.721 37.951,51.406 36.261,55.721 36.071,55.721 
					33.995,50.074 34.825,50.074 36.195,53.898 37.705,50.074 38.213,50.074 39.706,53.908 41.102,50.074 				"/>
				<polygon fill="#636365" points="47.552,55.68 44.097,55.68 44.097,50.074 47.47,50.074 47.47,50.799 44.893,50.799 
					44.893,52.488 47.395,52.488 47.395,53.211 44.893,53.211 44.893,54.959 47.552,54.959 				"/>
			</g>
		</g>
	</g>
</g>
</svg>
