<?xml version="1.0" encoding="utf-8"?>
<!-- Generator: Adobe Illustrator 15.0.2, SVG Export Plug-In  -->
<!DOCTYPE svg PUBLIC "-//W3C//DTD SVG 1.0//EN" "http://www.w3.org/TR/2001/REC-SVG-20010904/DTD/svg10.dtd" [
	<!ENTITY ns_flows "http://ns.adobe.com/Flows/1.0/">
]>
<svg version="1.0"
	 xmlns="http://www.w3.org/2000/svg" xmlns:xlink="http://www.w3.org/1999/xlink" xmlns:a="http://ns.adobe.com/AdobeSVGViewerExtensions/3.0/"
	 x="0px" y="0px" width="60px" height="60px" viewBox="0 0 60 60" overflow="visible" enable-background="new 0 0 60 60"
	 xml:space="preserve">
<defs>
</defs>
<path fill="#FFFFFF" d="M30,0C13.458,0,0,13.458,0,30s13.458,30,30,30s30-13.458,30-30S46.542,0,30,0z"/>
<rect x="22" y="39.16" fill="#0A0A0A" width="16" height="2.85"/>
<rect x="22" y="33.46" fill="#0A0A0A" width="16" height="2.85"/>
<rect x="22" y="27.76" fill="#0A0A0A" width="16" height="2.85"/>
<polygon fill="#0A0A0A" points="33.375,12 33.375,22.125 43.5,22.125 "/>
<path fill="#0A0A0A" d="M43.5,49.425h-27c-0.787,0-1.425-0.638-1.425-1.425V12c0-0.787,0.638-1.425,1.425-1.425h16.858
	c0.378,0,0.741,0.15,1.008,0.417l10.143,10.151c0.268,0.267,0.417,0.629,0.417,1.007V48C44.925,48.787,44.287,49.425,43.5,49.425z
	 M17.924,46.575h24.151V22.741l-9.309-9.316H17.924V46.575z"/>
<path fill="#0A0A0A" d="M43.5,23.55H33.375c-0.787,0-1.425-0.638-1.425-1.425V12h2.85v8.7h8.7V23.55z"/>
</svg>
