<?xml version="1.0" encoding="UTF-8" standalone="no"?>
<!-- Created with Inkscape (http://www.inkscape.org/) -->

<svg
   xmlns:dc="http://purl.org/dc/elements/1.1/"
   xmlns:cc="http://creativecommons.org/ns#"
   xmlns:rdf="http://www.w3.org/1999/02/22-rdf-syntax-ns#"
   xmlns:svg="http://www.w3.org/2000/svg"
   xmlns="http://www.w3.org/2000/svg"
   xmlns:sodipodi="http://sodipodi.sourceforge.net/DTD/sodipodi-0.dtd"
   xmlns:inkscape="http://www.inkscape.org/namespaces/inkscape"
   width="82.046547mm"
   height="95.955574mm"
   viewBox="0 0 290.71611 340.00006"
   id="svg2"
   version="1.1"
   inkscape:version="0.91 r13725"
   sodipodi:docname="identification.svg">
  <defs
     id="defs4">
    <clipPath
       clipPathUnits="userSpaceOnUse"
       id="clipPath4218">
      <path
         d="m 0,0 1366,0 0,1610 L 0,1610 0,0 Z"
         id="path4220"
         inkscape:connector-curvature="0" />
    </clipPath>
  </defs>
  <sodipodi:namedview
     id="base"
     pagecolor="#ffffff"
     bordercolor="#666666"
     borderopacity="1.0"
     inkscape:pageopacity="0.0"
     inkscape:pageshadow="2"
     inkscape:zoom="0.98994949"
     inkscape:cx="65.099431"
     inkscape:cy="243.4662"
     inkscape:document-units="px"
     inkscape:current-layer="layer1"
     showgrid="false"
     inkscape:window-width="1600"
     inkscape:window-height="849"
     inkscape:window-x="0"
     inkscape:window-y="27"
     inkscape:window-maximized="1"
     fit-margin-top="0"
     fit-margin-left="0"
     fit-margin-right="0"
     fit-margin-bottom="0" />
  <metadata
     id="metadata7">
    <rdf:RDF>
      <cc:Work
         rdf:about="">
        <dc:format>image/svg+xml</dc:format>
        <dc:type
           rdf:resource="http://purl.org/dc/dcmitype/StillImage" />
        <dc:title></dc:title>
      </cc:Work>
    </rdf:RDF>
  </metadata>
  <g
     inkscape:label="Layer 1"
     inkscape:groupmode="layer"
     id="layer1"
     transform="translate(0,-712.36214)">
    <g
       id="g4214"
       transform="matrix(0.99115226,0,0,-0.99239543,-59.40404,2250.6277)">
      <g
         clip-path="url(#clipPath4218)"
         id="g4216">
        <g
           transform="translate(130.3391,1541.8345)"
           id="g4222">
          <path
             inkscape:connector-curvature="0"
             id="path4224"
             style="fill:#ffffff;fill-opacity:1;fill-rule:nonzero;stroke:none"
             d="m 0,0 c 0,-1.183 -0.816,-2.198 -2.058,-2.198 l -1.72,0 0,4.4 1.748,0 C -0.789,2.202 0,1.186 0,0 m 7.332,0 c 0,4.091 -2.988,7.586 -7.64,7.586 l -10.661,0 0,-19.739 7.191,0 0,4.596 3.47,0 c 4.652,0 7.64,3.498 7.64,7.557 M 2.657,-36.12 c 0,-2.03 -1.353,-3.865 -3.751,-3.865 -2.396,0 -3.75,1.835 -3.75,3.865 0,2.031 1.354,3.863 3.75,3.863 2.398,0 3.751,-1.832 3.751,-3.863 m 7.19,0 c 0,5.499 -3.948,10.434 -10.941,10.434 -6.992,0 -10.94,-4.935 -10.94,-10.434 0,-5.499 3.948,-10.434 10.94,-10.434 6.993,0 10.941,4.935 10.941,10.434 m -13.625,-43.708 0,7.728 4.512,-7.728 8.319,0 -6.712,9.87 6.712,9.869 -8.319,0 -4.512,-7.755 0,7.755 -7.191,0 0,-19.739 7.191,0 z M 22.333,0 c 0,-1.183 -0.818,-2.198 -2.059,-2.198 l -1.719,0 0,4.4 1.748,0 c 1.242,0 2.03,-1.016 2.03,-2.202 m 7.98,-12.153 -3.975,5.809 c 2.115,1.355 3.355,3.722 3.355,6.344 0,4.091 -2.989,7.586 -7.642,7.586 l -10.686,0 0,-19.739 7.19,0 0,4.596 3.243,-4.596 8.515,0 z m -6.35,-33.837 0,13.677 3.636,0 0,6.061 -14.465,0 0,-6.061 3.638,0 0,-13.677 7.191,0 z m 5.814,-14.099 -7.189,0 0,-12.659 c 0,-0.905 -0.735,-1.637 -1.637,-1.637 -0.901,0 -1.635,0.732 -1.635,1.637 l 0,12.659 -7.19,0 0,-12.744 c 0,-4.512 3.271,-7.557 8.825,-7.557 5.556,0 8.826,3.045 8.826,7.557 l 0,12.744 z m 0.445,33.837 7.247,-19.738 6.513,0 2.651,9.081 2.651,-9.081 6.513,0 7.246,19.738 -7.612,0 -2.989,-10.657 -2.904,10.657 -5.809,0 -2.905,-10.657 -2.989,10.657 -7.613,0 z m 11.456,-33.837 -7.191,0 0,-19.739 11.87,0 0,6.065 -4.679,0 0,13.674 z m 19.172,-19.739 0,13.678 3.638,0 0,6.061 -14.465,0 0,-6.061 3.636,0 0,-13.678 7.191,0 z m -14.407,74.782 -3.525,0 1.777,6.457 1.748,-6.457 z m 1.945,-7.107 8.093,0 -7.755,19.739 -8.064,0 -7.502,-19.739 7.812,0 0.592,2.173 6.231,0 0.593,-2.173 z m 18.029,9.87 c 0,2.058 1.155,3.892 3.639,3.892 2,0 3.043,-1.156 3.324,-2.623 l 7.501,0 c -0.479,5.018 -4.229,9.166 -10.856,9.166 -6.908,0 -10.941,-4.935 -10.941,-10.435 0,-5.499 4.033,-10.432 11.026,-10.432 6.656,0 10.32,4.173 10.856,9.079 l -7.501,0 c -0.254,-1.353 -1.295,-2.539 -3.409,-2.539 -2.229,0 -3.639,1.608 -3.639,3.892 m 31.485,-67.59 0,4.4 1.749,0 c 1.24,0 2.031,-1.016 2.031,-2.2 0,-1.185 -0.82,-2.2 -2.06,-2.2 l -1.72,0 z m 0,-9.955 0,4.597 3.243,-4.597 8.515,0 -3.975,5.809 c 2.114,1.355 3.355,3.723 3.355,6.346 0,4.089 -2.989,7.584 -7.641,7.584 l -10.687,0 0,-19.739 7.19,0 z m 13.866,19.739 6.233,-13.252 -3.13,-6.487 8.093,0 9.784,19.739 -8.036,0 -2.369,-6.287 -2.114,6.287 -8.461,0 z m -2.926,26.252 c 0,-1.182 -0.816,-2.198 -2.056,-2.198 l -1.722,0 0,4.398 1.749,0 c 1.24,0 2.029,-1.015 2.029,-2.2 m -0.535,-12.153 8.517,0 -3.977,5.809 c 2.114,1.353 3.355,3.722 3.355,6.344 0,4.09 -2.989,7.585 -7.641,7.585 l -10.688,0 0,-19.738 7.191,0 0,4.596 3.243,-4.596 z m -28.93,0 13.366,0 0,5.162 -6.175,0 0,2.198 6.175,0 0,4.879 -6.175,0 0,2.339 6.175,0 0,5.16 -13.366,0 0,-19.738 z m 6.626,-26.843 0,12.744 -7.191,0 0,-12.659 c 0,-0.905 -0.732,-1.637 -1.634,-1.637 -0.903,0 -1.637,0.732 -1.637,1.637 l 0,12.659 -7.19,0 0,-12.744 c 0,-4.512 3.27,-7.557 8.827,-7.557 5.554,0 8.825,3.045 8.825,7.557 m -19.49,26.843 7.191,0 0,19.738 -7.191,0 0,-19.738 z m 32.472,43.707 c 0,-2.03 -1.353,-3.863 -3.751,-3.863 -2.396,0 -3.751,1.833 -3.751,3.863 0,2.031 1.355,3.863 3.751,3.863 2.398,0 3.751,-1.832 3.751,-3.863 m 7.189,0 c 0,5.5 -3.947,10.435 -10.94,10.435 -6.992,0 -10.942,-4.935 -10.942,-10.435 0,-5.499 3.95,-10.432 10.942,-10.432 6.993,0 10.94,4.933 10.94,10.432 m 27.504,-9.87 7.246,19.739 -7.612,0 -2.989,-10.658 -2.905,10.658 -5.807,0 -2.906,-10.658 -2.989,10.658 -7.613,0 7.247,-19.739 6.513,0 2.651,9.081 2.65,-9.081 6.514,0 z m -0.726,-26.729 -3.525,0 1.777,6.455 1.748,-6.455 z m 1.945,-7.108 7.974,0 -7.635,19.738 -8.065,0 -7.5,-19.738 7.81,0 0.593,2.173 6.231,0 0.592,-2.173 z m 22.438,33.837 7.191,0 0,19.739 -7.191,0 0,-10.517 -5.751,10.517 -7.191,0 0,-19.739 7.191,0 0,9.955 5.751,-9.955 z m 2.427,-33.837 7.189,0 0,19.738 -7.189,0 0,-10.516 -5.753,10.516 -7.191,0 0,-19.738 7.191,0 0,9.955 5.753,-9.955 z m 10.121,33.837 7.191,0 0,19.739 -7.191,0 0,-19.739 z m 2.427,-33.837 7.191,0 0,19.738 -7.191,0 0,-19.738 z m 21.912,40.944 -3.524,0 1.776,6.457 1.748,-6.457 z m 1.946,-7.107 8.092,0 -7.753,19.739 -8.065,0 -7.499,-19.739 7.809,0 0.593,2.173 6.232,0 0.591,-2.173 z m 0.441,-26.729 -3.524,0 1.776,6.455 1.748,-6.455 z m 1.946,-7.108 8.093,0 -7.754,19.738 -8.065,0 -7.499,-19.738 7.809,0 0.592,2.173 6.233,0 0.591,-2.173 z" />
        </g>
      </g>
    </g>
    <path
       d="m 39.34306,722.36214 -29.34306,0 0,320.00006 280.71612,0"
       style="fill:none;stroke:#ffffff;stroke-width:20;stroke-linecap:butt;stroke-linejoin:miter;stroke-miterlimit:4;stroke-dasharray:none;stroke-opacity:1"
       id="path4466"
       inkscape:connector-curvature="0"
       sodipodi:nodetypes="cccc" />
  </g>
</svg>
